<svg viewBox="0 0 600 600" xmlns="http://www.w3.org/2000/svg" xmlns:xlink="http://www.w3.org/1999/xlink" width="600.000000" height="600.000000" fill="none" customFrame="#000000">
	<defs>
		<linearGradient id="paint_linear_1" x1="182.305298" x2="-26.1189575" y1="48.1582642" y2="558.538635" gradientUnits="userSpaceOnUse">
			<stop stop-color="rgb(32,117,255)" offset="0" stop-opacity="1" />
			<stop stop-color="rgb(117.5,135,254.5)" offset="0.494790643" stop-opacity="1" />
			<stop stop-color="rgb(37,170,251)" offset="1" stop-opacity="1" />
		</linearGradient>
	</defs>
	<g id="组合 298">
		<g id="组合 297">
			<rect id="矩形 129" width="600.000000" height="600.000000" x="0.000000" y="0.000000" fill="rgb(255,255,255)" fill-opacity="0" />
		</g>
		<path id="矢量 455" d="M161.59 319.624L183.162 384.845L214.3 299.369C219.198 285.931 226.898 273.677 236.895 263.414C246.892 253.15 258.959 245.109 272.302 239.819L366.325 202.55L280.442 171.965C267.747 167.544 256.139 160.491 246.386 151.273C236.633 142.055 228.957 130.882 223.865 118.492L183.162 20.255L155.688 91.1474C146.865 114.022 132.881 134.575 114.815 151.221C96.7493 167.867 75.0837 180.161 51.489 187.156L0 202.55L71.2298 227.666C92.3832 235.044 111.541 247.18 127.213 263.129C142.885 279.079 154.649 298.411 161.59 319.624ZM329.082 81.0199L334.984 98.8443L343.328 75.5511C344.681 71.8917 346.795 68.5573 349.53 65.7653C352.265 62.9733 355.561 60.7864 359.202 59.3471L384.845 49.2196L361.441 40.9151C358.043 39.6982 354.923 37.8168 352.267 35.3818C349.611 32.9468 347.471 30.0073 345.974 26.7366L334.984 0L327.454 20.255C325.012 26.4792 321.177 32.0674 316.24 36.5951C311.303 41.1227 305.394 44.4705 298.962 46.3839L284.919 49.8273L305.271 56.5114C310.791 58.6289 315.781 61.9186 319.893 66.1513C324.005 70.384 327.141 75.458 329.082 81.0199Z" fill="url(#paint_linear_1)" fill-rule="nonzero" transform="matrix(0.973978,-0.226644,0.226644,0.973978,34.2158,158.326)" />
	</g>
</svg>
