<svg viewBox="0 0 1356 420" xmlns="http://www.w3.org/2000/svg" xmlns:xlink="http://www.w3.org/1999/xlink" width="1356.000000" height="420.000000" fill="none" customFrame="#000000">
	<defs>
		<linearGradient id="paint_linear_6" x1="1211.42664" x2="1136.26233" y1="247.504089" y2="529.441162" gradientUnits="userSpaceOnUse">
			<stop stop-color="rgb(32,117,255)" offset="0" stop-opacity="1" />
			<stop stop-color="rgb(117.5,135,254.5)" offset="0.494790643" stop-opacity="1" />
			<stop stop-color="rgb(37,170,251)" offset="0.837222993" stop-opacity="1" />
		</linearGradient>
		<linearGradient id="paint_linear_7" x1="145.542297" x2="-20.9243317" y1="38.4566193" y2="445.989502" gradientUnits="userSpaceOnUse">
			<stop stop-color="rgb(32,117,255)" offset="0" stop-opacity="1" />
			<stop stop-color="rgb(117.5,135,254.5)" offset="0.494790643" stop-opacity="1" />
			<stop stop-color="rgb(37,170,251)" offset="1" stop-opacity="1" />
		</linearGradient>
		<linearGradient id="paint_linear_8" x1="1430.92493" x2="1306.06689" y1="254.043732" y2="473.604431" gradientUnits="userSpaceOnUse">
			<stop stop-color="rgb(32,117,255)" offset="0" stop-opacity="1" />
			<stop stop-color="rgb(117.5,135,254.5)" offset="0.494790643" stop-opacity="1" />
			<stop stop-color="rgb(37,170,251)" offset="0.837222993" stop-opacity="1" />
		</linearGradient>
	</defs>
	<g id="组合 296">
		<path id="矢量 455" d="M984.735 291.393L978.807 319.598L1001.93 319.598C1003.16 313.316 1004.21 307.846 1005.09 303.189C1006.01 298.488 1007.11 293.524 1008.38 288.296L1045.33 114.979L1022.28 114.979C1020.83 121.833 1019.73 127.017 1018.99 130.532Q1017.93 135.804 1015.49 146.282L1003.24 204.471Q1002 202.111 1000.52 199.913Q993.027 188.8 979.334 181.868C968.4 176.332 955.117 173.564 939.485 173.564C921.745 173.564 905.498 176.837 890.744 183.383Q870.363 192.392 856.67 207.473Q855.538 208.719 854.452 210.007C845.011 221.254 838.754 233.906 835.68 247.965Q831.677 266.917 837.051 282.668Q837.601 284.28 838.249 285.857C842.948 297.148 851.225 306.089 863.081 312.679C874.98 319.268 889.822 322.563 907.606 322.563C923.326 322.563 937.838 319.774 951.143 314.194C964.492 308.615 975.689 301.014 984.735 291.393ZM356.84 319.598C357.938 314.721 358.75 311.119 359.277 308.79Q360.067 305.298 360.726 301.673Q361.45 297.983 363.031 290.998L393.264 148.457Q394.91 141.208 395.701 137.715C396.228 135.342 396.711 132.948 397.15 130.532Q397.874 126.841 399.455 119.856L502.009 119.856Q517.092 119.856 529.079 125.458C537.115 129.192 543.043 134.793 546.863 142.262C550.684 149.731 551.452 158.737 549.169 169.281Q545.151 187.733 534.942 198.606Q527.322 206.724 517.956 211.124L517.955 211.125L517.955 211.125Q514.853 212.582 511.559 213.631C518.936 215.433 525.106 218.288 530.067 222.198C535.073 226.108 538.586 231.556 540.606 238.541C542.626 245.527 542.516 254.138 540.277 264.374C537.774 276.104 532.702 286.165 525.062 294.556Q520.781 299.233 515.828 303.037L515.828 303.038L515.827 303.038L515.826 303.038L515.824 303.041Q507.521 309.417 497.332 313.338C486.486 317.511 475.003 319.598 462.884 319.598L356.84 319.598ZM478.626 203.417C486.662 203.417 493.709 202.406 499.769 200.385C505.829 198.365 511.01 195.092 515.313 190.566Q516.053 189.789 516.738 188.965L516.739 188.965L516.741 188.962L516.743 188.96L516.743 188.959Q522.089 182.527 524.074 173.301C525.523 166.271 525.062 160.45 522.69 155.837C520.319 151.18 516.477 147.754 511.164 145.557Q503.194 142.262 491.733 142.262L418.886 142.262L405.778 203.417L478.626 203.417ZM723.176 303.189C724.098 298.488 725.108 293.524 726.205 288.296L749.917 176.53L726.864 176.53C725.591 182.461 724.537 187.469 723.703 191.555C722.912 195.597 721.99 200.122 720.936 205.13L707.434 268.196C701.945 277.905 693.514 286.077 682.141 292.711Q665.082 302.596 640.777 302.596C631.073 302.596 622.73 300.882 615.748 297.456C608.81 294.029 603.804 288.999 600.731 282.365C597.657 275.687 597.108 267.669 599.084 258.311L616.341 176.53L593.288 176.53C592.058 182.461 591.026 187.469 590.192 191.555C589.402 195.597 588.458 200.122 587.36 205.13L575.504 261.013C572.606 274.676 573.55 286.143 578.336 295.413C583.123 304.683 590.412 311.558 600.204 316.039C609.996 320.477 620.952 322.651 633.071 322.563C648.396 322.476 661.503 320.081 672.393 315.38Q681.522 311.419 689.549 305.864L689.55 305.864Q695.943 301.44 701.637 296.006L696.632 319.598L719.685 319.598Q721.858 310.174 723.176 303.189ZM792.522 290.998C791.819 294.249 791.182 297.126 790.611 299.63C790.085 302.135 789.602 304.617 789.162 307.077C788.723 309.493 788.152 312.415 787.45 315.842L786.594 319.598L763.541 319.598L764.331 315.842C765.077 312.415 765.67 309.493 766.109 307.077C766.548 304.617 767.031 302.135 767.558 299.63C768.129 297.126 768.766 294.249 769.469 290.998L787.252 207.832C788.701 200.847 789.777 195.597 790.48 192.082C791.226 188.567 792.324 183.383 793.773 176.53L816.826 176.53L792.522 290.998ZM950.353 294.358C939.463 298.752 927.19 300.948 913.534 300.948C899.263 300.948 887.671 298.708 878.757 294.227C869.843 289.745 863.717 283.529 860.38 275.577C857.043 267.581 856.516 258.377 858.799 247.965C861.039 237.421 865.496 228.173 872.17 220.221C878.888 212.225 887.649 206.053 898.451 201.703C909.253 197.354 921.833 195.179 936.192 195.179C950.155 195.179 961.594 197.398 970.508 201.835C979.466 206.273 985.613 212.467 988.951 220.419C992.288 228.327 992.837 237.443 990.597 247.767C988.314 258.487 983.747 267.845 976.897 275.841C970.091 283.792 961.243 289.965 950.353 294.358ZM461.764 297.192C471.293 297.192 479.834 295.896 487.386 293.304C494.983 290.668 501.372 286.604 506.553 281.113C511.779 275.621 515.248 268.701 516.96 260.354C518.76 252.095 518.19 245.285 515.248 239.925Q514.25 238.08 512.964 236.464L512.964 236.464Q508.648 231.038 501.086 228.195C494.588 225.691 486.398 224.439 476.518 224.439L401.365 224.439L385.953 297.192L461.764 297.192Z" fill="url(#paint_linear_6)" fill-rule="evenodd" />
		<path id="矢量 457" d="M129.004 255.234L146.227 307.316L171.085 239.06C174.995 228.329 181.143 218.544 189.124 210.348C197.105 202.152 206.738 195.731 217.39 191.507L292.453 161.745L223.889 137.322C213.754 133.791 204.487 128.159 196.701 120.798C188.915 113.437 182.786 104.515 178.721 94.6211L146.227 16.1745L124.293 72.7855C117.249 91.0522 106.085 107.465 91.6621 120.757C77.2392 134.05 59.9426 143.867 41.1059 149.453L0 161.745L56.8659 181.802C73.7535 187.694 89.0481 197.385 101.56 210.121C114.072 222.857 123.463 238.295 129.004 255.234ZM262.721 64.6982L267.432 78.9318L274.094 60.3311C275.174 57.4089 276.861 54.7462 279.045 52.5167C281.228 50.2871 283.86 48.5407 286.767 47.3914L307.238 39.3041L288.554 32.6726C285.841 31.7008 283.351 30.1985 281.23 28.254C279.11 26.3095 277.401 23.9622 276.206 21.3504L267.432 0L261.421 16.1745C259.472 21.1448 256.41 25.6073 252.469 29.2229C248.527 32.8384 243.809 35.5117 238.674 37.0397L227.464 39.7894L243.711 45.127C248.118 46.8179 252.102 49.4449 255.385 52.8249C258.668 56.2049 261.171 60.2567 262.721 64.6982Z" fill="url(#paint_linear_7)" fill-rule="nonzero" transform="matrix(0.865271,-0.501304,0.500921,0.865493,0,154.02)" />
		<path id="矢量 456" d="M1235.65 326.269C1234.59 321.964 1233.67 318.295 1232.88 315.264C1232.13 312.232 1231.26 308.74 1230.25 304.786L1220.69 267.157L1111.7 267.157L1088.24 301.82Q1082.57 310.255 1079.81 314.209Q1077.11 318.098 1071.64 326.269L1045.43 326.269C1049.2 320.865 1051.97 316.823 1053.72 314.143C1055.44 311.42 1058.14 307.444 1061.83 302.216L1180.52 126.527L1211.94 126.527L1255.8 301.688C1257.16 307.268 1258.17 311.42 1258.83 314.143C1259.49 316.823 1260.48 320.865 1261.8 326.269L1235.65 326.269ZM1317.27 308.344C1317.71 305.884 1318.48 302.326 1319.58 297.669L1349.74 155.128Q1351.39 147.879 1352.18 144.386Q1353.04 140.828 1353.7 137.203C1354.13 134.743 1354.9 131.184 1356 126.527L1331.96 126.527C1330.91 131.184 1330.14 134.743 1329.65 137.203C1329.21 139.619 1328.73 142.014 1328.21 144.386Q1327.41 147.879 1325.77 155.128L1295.54 297.669C1294.48 302.326 1293.71 305.884 1293.23 308.344C1292.79 310.761 1292.31 313.133 1291.78 315.461C1291.25 317.79 1290.44 321.392 1289.34 326.269L1313.39 326.269C1314.44 321.392 1315.23 317.79 1315.76 315.461C1316.33 313.133 1316.83 310.761 1317.27 308.344ZM1190.97 150.065L1215.63 247.19L1125.22 247.19L1190.97 150.065Z" fill="url(#paint_linear_8)" fill-rule="evenodd" />
	</g>
</svg>
