<svg xmlns="http://www.w3.org/2000/svg" xmlns:xlink="http://www.w3.org/1999/xlink" fill="none" version="1.1" width="1215.263671875" height="351.58984375" viewBox="0 0 1215.263671875 351.58984375"><defs><linearGradient x1="1.0974531173706055" y1="0.24067871272563934" x2="0.0027141775759989056" y2="0.5041190943136322" id="master_svg0_1_15275"><stop offset="0%" stop-color="#0039FF" stop-opacity="0.949999988079071"/><stop offset="99.99997019767761%" stop-color="#6383FE" stop-opacity="1"/></linearGradient><linearGradient x1="0.4739069938659668" y1="0.125559002161026" x2="-0.13838713362106442" y2="1.3833396940142455" id="master_svg1_1_13458"><stop offset="0%" stop-color="#2075FF" stop-opacity="1"/><stop offset="49.4790643453598%" stop-color="#7687FE" stop-opacity="1"/><stop offset="100%" stop-color="#25AAFB" stop-opacity="1"/></linearGradient><linearGradient x1="0.4739069938659668" y1="0.125559002161026" x2="0.4042392019626907" y2="1.633865545591797" id="master_svg2_0_8427"><stop offset="0%" stop-color="#2075FF" stop-opacity="1"/><stop offset="49.4790643453598%" stop-color="#7687FE" stop-opacity="1"/><stop offset="100%" stop-color="#25AAFB" stop-opacity="1"/></linearGradient></defs><g><g><path d="M925.365234375,308.0003221875L1063.608294375,101.0107421875L1064.052734375,101.0107421875L1100.316634375,308.0003221875L1065.948564375,308.0003221875L1059.101344375,265.96559218749996L990.556205375,265.96559218749996L962.840931375,308.0003221875L925.365234375,308.0003221875ZM1009.768013375,236.9308821875L1054.149964375,236.9308821875L1049.927734375,211.2815721875Q1048.556204375,203.2399121875,1047.504124375,195.6635131875Q1046.455514375,188.08712718750002,1046.233294375,177.8648981875Q1041.281894375,187.9274141875,1036.653424375,195.5524141875Q1032.028424375,203.1774121875,1026.594394375,211.2815721875L1009.768013375,236.9308821875ZM1128.292324375,308.0003221875L1178.292324375,108.0003203875L1215.264524375,108.0003203875L1165.264544375,308.0003221875L1128.292324375,308.0003221875Z" fill="url(#master_svg0_1_15275)" fill-opacity="1"/></g><g><path d="M339,312.048L365.495998,95.7599945L451.032,95.7599945Q479.832,96.0480042,495.23999000000003,108Q510.64799,119.95199600000001,510.64799,142.992004Q510.64799,145.296005,510.07199,151.632004L508.91999999999996,162Q505.46398999999997,186.479996,487.03200000000004,198.28798999999998Q499.41598999999997,203.18399,505.752,213.26400999999998Q512.088,223.34399,512.088,237.45599Q512.088,241.776,511.79999,244.07999L510.35999000000004,256.17599Q506.90399,282.95999,487.17599,297.504Q467.448,312.048,433.463997,312.048L339,312.048ZM440.66399,187.05599999999998Q471.48,186.479996,475.224,162.576004L476.66399,151.05599999999998Q478.67999,126.86399800000001,448.15199,126.287994L395.736,126.287994L388.247997,187.05599999999998L440.66399,187.05599999999998ZM437.495995,280.94399999999996Q454.48798999999997,280.65599,464.28,274.31998999999996Q474.07199,267.98399,476.08799999999997,256.752L477.528,244.368Q478.96799,231.12,470.75999,224.064Q462.55199,217.00799999999998,445.272,216.72L384.791996,216.72L376.727997,280.94399999999996L437.495995,280.94399999999996ZM641.9759799999999,280.368L657.5279800000001,151.632004L690.64798,151.632004L671.0640000000001,312.048L598.7759699999999,312.048Q539.15999,312.048,539.15999,257.328Q539.15999,250.70399,540.02399,242.92799L551.25598,151.632004L584.37598,151.632004L573.14398,243.79199Q572.56799,247.536,572.56799,254.16Q572.56799,269.13599,579.62399,274.89599999999996Q586.67999,280.65599,602.51999,280.65599L641.9759799999999,280.368ZM729.23999,130.031998L733.55997,95.4720001L771.28796,95.4720001L766.96799,130.031998L729.23999,130.031998ZM742.48798,312.048L709.36798,312.048L729.23999,151.632004L762.3599899999999,151.632004L742.48798,312.048ZM785.9759799999999,221.03999Q794.32797,151.632004,860.28003,151.632004L898.008,151.632004L905.49597,90L938.61597,90L911.54401,312.048L842.1359600000001,312.048Q782.5199600000001,312.048,782.5199600000001,257.328Q782.5199600000001,250.70399,783.38397,242.92799L785.9759799999999,221.03999ZM882.16797,281.23199L894.26398,181.871994L856.53601,181.871994Q823.99197,181.871994,819.38397,220.17599L816.50397,243.79199Q815.9279799999999,249.552,815.9279799999999,252.144Q815.9279799999999,281.23199,845.87997,281.23199L882.16797,281.23199Z" fill="url(#master_svg1_1_13458)" fill-opacity="1"/></g><g><path d="M201.47653,52.516537C199.29294,54.746117,197.60587,57.408798,196.52533,60.330925L189.86392,78.931641L185.15221,64.698059C183.60275,60.256653,181.09935,56.204853,177.81631,52.824844C174.53336,49.444832,170.54974,46.817829,166.14284,45.126877L149.89551,39.789284L161.10612,37.039619C166.24121,35.511662,170.95891,32.838326,174.90031,29.222782C178.84181,25.607319,181.9034,21.14476,183.85245,16.174515L189.86392,0L198.63751,21.350378C199.83293,23.962225,201.54131,26.309494,203.66194,28.253975C205.78259,30.198456,208.27267,31.700762,210.98547,32.672489L229.66992,39.304089L209.19829,47.391346C206.29123,48.540668,203.66011,50.287033,201.47653,52.516537ZM189.12358,254.62164C181.14284,262.81757,174.99518,272.60254,171.08508,283.33344L146.22656,351.58984L129.00429,299.50781C123.46318,282.56891,114.07163,267.13083,101.55991,254.39455C89.048172,241.65855,73.753464,231.96733,56.865757,226.0755L0,206.01904L41.106041,193.72646C59.942654,188.14062,77.239212,178.32303,91.662117,165.03067C106.08474,151.73802,117.24855,135.32578,124.29258,117.05898L146.22656,60.448242L178.72133,138.89459C182.78642,148.78876,188.91449,157.71109,196.70076,165.07202C204.48703,172.43295,213.75398,178.06479,223.88925,181.59546L292.45312,206.01904L217.39006,235.78012C206.73804,240.00429,197.10463,246.4257,189.12358,254.62164Z" fill-rule="evenodd" fill="url(#master_svg2_0_8427)" fill-opacity="1"/></g></g></svg>